<svg width="1931" height="400" viewBox="0 0 1931 400" fill="none" xmlns="http://www.w3.org/2000/svg">
<g clip-path="url(#clip0_17_31)">
<path d="M200.001 66.6653C126.362 66.6653 66.666 126.365 66.666 200C66.666 273.635 126.362 333.335 200.001 333.335C273.636 333.335 333.336 273.635 333.336 200C333.336 126.365 273.636 66.6653 200.001 66.6653ZM200.001 299.998C144.772 299.998 99.9987 255.225 99.9987 200C99.9987 144.76 144.772 99.998 200.001 99.998C255.226 99.998 299.999 144.76 299.999 200C299.999 255.225 255.226 299.998 200.001 299.998Z" fill="#393939"/>
<path d="M266.666 200C266.666 236.816 236.817 266.665 200.001 266.665C163.182 266.665 133.336 236.816 133.336 200C133.336 163.181 163.182 133.335 200.001 133.335C236.817 133.335 266.666 163.181 266.666 200Z" fill="#393939"/>
<path d="M400 0H200C130.405 0 69.164 35.5948 33.3403 89.5192V0H0V200C0 269.595 35.5948 330.844 89.5344 366.664H0V400H200C269.595 400 330.844 364.405 366.664 310.466V400H400V200C400 130.405 364.405 69.1602 310.466 33.3365H400V0ZM366.664 200C366.664 292.041 292.041 366.664 200 366.664C107.948 366.664 33.3365 292.041 33.3365 200H33.3441V199.836C33.4281 107.86 108.009 33.3365 200 33.3365C292.041 33.3365 366.664 107.94 366.664 200Z" fill="#393939"/>
<path d="M593.407 1.52588C601.471 1.52588 609.063 2.67033 616.184 4.95923C623.306 7.24814 629.537 10.4271 634.877 14.4963C640.218 18.5655 644.433 23.4824 647.523 29.247C650.612 34.9269 652.157 41.2002 652.157 48.0669V149.287C652.157 156.154 650.612 162.47 647.523 168.235C644.433 173.914 640.218 178.789 634.877 182.858C629.537 186.927 623.306 190.106 616.184 192.395C609.063 194.684 601.471 195.829 593.407 195.829C588.904 195.829 584.297 195.574 579.584 195.066C574.872 194.472 570.29 193.752 565.839 192.904C561.441 191.971 557.304 190.912 553.43 189.725C549.555 188.538 546.23 187.266 543.455 185.91V11.4444C546.23 10.088 549.555 8.81646 553.43 7.62962C557.304 6.44278 561.441 5.42549 565.839 4.57775C570.29 3.64523 574.872 2.92465 579.584 2.41601C584.297 1.82259 588.904 1.52588 593.407 1.52588ZM593.722 30.2643C588.957 30.2643 584.82 30.5186 581.312 31.0273C577.804 31.4512 574.793 32.0446 572.28 32.8075C569.766 33.4857 567.672 34.2487 565.996 35.0964C564.373 35.8594 563.038 36.5376 561.991 37.131V160.223C563.038 160.902 564.373 161.622 565.996 162.385C567.672 163.148 569.766 163.911 572.28 164.674C574.793 165.352 577.804 165.946 581.312 166.454C584.82 166.878 588.957 167.09 593.722 167.09C599.586 167.09 604.848 166.327 609.508 164.801C614.221 163.275 618.174 161.241 621.368 158.697C624.615 156.154 627.102 153.229 628.83 149.923C630.558 146.532 631.422 143.014 631.422 139.369V57.9855C631.422 54.3402 630.558 50.8645 628.83 47.5583C627.102 44.1673 624.615 41.2002 621.368 38.657C618.174 36.1137 614.221 34.0792 609.508 32.5532C604.848 31.0273 599.586 30.2643 593.722 30.2643Z" fill="#393939"/>
<path d="M696.296 195.32H676.346V50.3559H696.296V195.32ZM686.4 0C690.274 0 693.338 1.05968 695.589 3.17903C697.841 5.21362 698.966 8.47743 698.966 12.9705V19.3285C698.966 23.3977 697.841 26.3224 695.589 28.1027C693.338 29.8829 690.274 30.7731 686.4 30.7731C682.682 30.7731 679.671 29.8829 677.367 28.1027C675.116 26.3224 673.99 23.3977 673.99 19.3285V12.9705C673.99 8.47743 675.116 5.21362 677.367 3.17903C679.671 1.05968 682.682 0 686.4 0Z" fill="#393939"/>
<path d="M775.152 50.356C779.602 50.356 784.132 50.6527 788.739 51.2461C793.347 51.7548 797.772 52.4754 802.013 53.4079C806.306 54.2556 810.312 55.2729 814.03 56.4598C817.8 57.6466 821.072 58.9182 823.847 60.2746H825.104V201.678C825.104 207.697 824.319 213.292 822.748 218.463C821.177 223.634 818.899 228.085 815.915 231.815C812.93 235.63 809.265 238.597 804.919 240.717C800.573 242.836 795.625 243.896 790.075 243.896V221.769C792.169 221.769 794.106 221.43 795.887 220.752C797.667 220.074 799.212 219.014 800.521 217.573C801.882 216.217 802.929 214.479 803.662 212.36C804.448 210.325 804.84 207.951 804.84 205.238V185.656C800.076 188.623 795.127 190.996 789.996 192.777C784.917 194.472 779.969 195.32 775.152 195.32C767.088 195.32 759.888 194.43 753.553 192.65C747.217 190.784 741.85 187.945 737.452 184.13C733.053 180.315 729.702 175.483 727.398 169.633C725.094 163.784 723.943 156.832 723.943 148.779V96.8971C723.943 88.8435 725.094 81.892 727.398 76.0426C729.702 70.1932 733.053 65.3611 737.452 61.5462C741.85 57.7314 747.217 54.9338 753.553 53.1536C759.888 51.2885 767.088 50.356 775.152 50.356ZM780.807 169.888C783.687 169.888 786.331 169.591 788.739 168.997C791.148 168.319 793.321 167.472 795.258 166.454C797.248 165.437 799.028 164.377 800.599 163.275C802.222 162.088 803.636 160.986 804.84 159.969V80.8747C803.427 80.027 801.777 79.1793 799.892 78.3315C798.06 77.4838 796.07 76.7632 793.923 76.1698C791.829 75.4916 789.656 74.9829 787.404 74.6438C785.153 74.22 782.953 74.008 780.807 74.008C775.937 74.008 771.303 74.22 766.905 74.6438C762.506 75.0677 758.658 76.2122 755.359 78.0772C752.06 79.9422 749.416 82.8245 747.426 86.7242C745.489 90.539 744.52 95.8798 744.52 102.746V140.132C744.52 144.625 744.966 148.482 745.856 151.704C746.746 154.925 747.976 157.638 749.547 159.842C751.17 162.046 753.108 163.826 755.359 165.183C757.611 166.454 760.072 167.472 762.742 168.235C765.412 168.913 768.266 169.379 771.303 169.633C774.392 169.803 777.56 169.888 780.807 169.888Z" fill="#393939"/>
<path d="M871.915 195.32H851.965V50.3559H871.915V195.32ZM862.019 0C865.893 0 868.956 1.05968 871.208 3.17903C873.46 5.21362 874.585 8.47743 874.585 12.9705V19.3285C874.585 23.3977 873.46 26.3224 871.208 28.1027C868.956 29.8829 865.893 30.7731 862.019 30.7731C858.301 30.7731 855.29 29.8829 852.986 28.1027C850.735 26.3224 849.609 23.3977 849.609 19.3285V12.9705C849.609 8.47743 850.735 5.21362 852.986 3.17903C855.29 1.05968 858.301 0 862.019 0Z" fill="#393939"/>
<path d="M927.68 48.5756H947.63V69.9388H927.68V195.32H908.988V69.9388H894.222V48.5756H908.988V4.32349H927.68V48.5756Z" fill="#393939"/>
<path d="M1054.45 143.438C1053.14 141.573 1051.51 139.75 1049.58 137.97C1047.64 136.19 1045.26 134.622 1042.43 133.265C1039.6 131.824 1036.22 130.68 1032.3 129.832C1028.42 128.899 1023.87 128.433 1018.63 128.433C1013.97 128.433 1009.55 128.603 1005.36 128.942C1001.22 129.196 997.582 130.044 994.441 131.485C991.299 132.841 988.812 135.045 986.979 138.097C985.147 141.149 984.23 145.388 984.23 150.813V167.09C988.838 168.277 993.917 169.252 999.467 170.015C1005.02 170.778 1011.2 171.159 1018 171.159C1023.45 171.159 1029.23 170.863 1035.36 170.269C1041.54 169.591 1047.9 168.277 1054.45 166.327V143.438ZM1019.1 50.356C1021.72 50.356 1024.89 50.5679 1028.61 50.9918C1032.32 51.4157 1036.2 52.1787 1040.23 53.2807C1044.26 54.298 1048.24 55.7392 1052.17 57.6042C1056.15 59.3845 1059.71 61.7581 1062.85 64.7252C1066.04 67.6076 1068.61 71.0833 1070.55 75.1525C1072.48 79.2216 1073.45 84.0114 1073.45 89.5217V187.945C1069.06 189.386 1064.08 190.615 1058.53 191.632C1053.77 192.565 1048.08 193.412 1041.49 194.175C1034.89 194.938 1027.53 195.32 1019.42 195.32C1011.35 195.32 1002.77 194.769 993.655 193.667C984.597 192.565 975.12 190.657 965.223 187.945V142.166C965.223 137.25 965.93 132.968 967.344 129.323C968.81 125.593 970.8 122.414 973.313 119.786C975.826 117.158 978.785 114.996 982.188 113.301C985.592 111.605 989.257 110.249 993.184 109.232C997.111 108.214 1001.2 107.536 1005.44 107.197C1009.68 106.773 1013.92 106.561 1018.16 106.561C1024.6 106.561 1030.07 107.239 1034.58 108.596C1039.13 109.867 1042.9 111.266 1045.89 112.792C1049.34 114.657 1052.2 116.734 1054.45 119.023V98.423C1054.45 94.9473 1053.92 91.9802 1052.88 89.5217C1051.83 86.9785 1050.41 84.8591 1048.63 83.1636C1046.85 81.3834 1044.81 79.9846 1042.51 78.9673C1040.2 77.8653 1037.8 77.0175 1035.28 76.4241C1032.77 75.8307 1030.2 75.4492 1027.59 75.2796C1025.02 75.1101 1022.61 75.0253 1020.36 75.0253C1018 75.0253 1015.49 75.1525 1012.82 75.4068C1010.15 75.5763 1007.48 75.9578 1004.81 76.5513C1002.19 77.1447 999.651 77.9924 997.19 79.0945C994.781 80.1118 992.634 81.5106 990.749 83.2908C988.864 85.0711 987.346 87.2328 986.194 89.776C985.094 92.2345 984.545 95.2016 984.545 98.6773L965.066 90.539C965.066 84.8591 965.93 79.9422 967.658 75.7883C969.386 71.5496 971.664 67.9467 974.491 64.9796C977.371 62.0125 980.67 59.5964 984.387 57.7314C988.105 55.7816 991.954 54.298 995.933 53.2807C999.965 52.1787 1003.97 51.4157 1007.95 50.9918C1011.93 50.5679 1015.65 50.356 1019.1 50.356Z" fill="#393939"/>
<path d="M1118.69 195.32H1100.79V4.32349H1118.69V195.32Z" fill="#393939"/>
<path d="M1271.69 1.52588C1278.81 1.52588 1285.7 2.24646 1292.35 3.68762C1299.05 5.04401 1305.05 7.41769 1310.34 10.8086C1315.68 14.1148 1320.05 18.6079 1323.45 24.2877C1326.91 29.9676 1328.92 37.0463 1329.5 45.5237L1309.08 54.6793C1309.08 49.5928 1308.01 45.4389 1305.86 42.2175C1303.76 38.9113 1300.96 36.3257 1297.45 34.4606C1294 32.5108 1290.02 31.1544 1285.52 30.3915C1281.07 29.6285 1276.46 29.247 1271.69 29.247C1267.03 29.247 1262.45 29.5861 1257.95 30.2643C1253.44 30.9425 1249.39 32.2141 1245.77 34.0792C1242.21 35.9442 1239.33 38.5298 1237.13 41.836C1234.94 45.1422 1233.84 49.4233 1233.84 54.6793V84.9437H1329.5V150.813C1329.5 156.493 1328.71 161.58 1327.14 166.073C1325.62 170.481 1323.5 174.338 1320.78 177.644C1318.11 180.866 1314.92 183.621 1311.2 185.91C1307.53 188.114 1303.55 189.894 1299.26 191.251C1295.02 192.607 1290.54 193.582 1285.83 194.175C1281.12 194.769 1276.41 195.066 1271.69 195.066C1266.88 195.066 1262.14 194.769 1257.48 194.175C1252.82 193.582 1248.39 192.607 1244.2 191.251C1240.01 189.894 1236.11 188.114 1232.5 185.91C1228.94 183.621 1225.8 180.866 1223.08 177.644C1220.35 174.338 1218.15 170.481 1216.48 166.073C1214.8 161.665 1213.78 156.578 1213.41 150.813L1233.84 141.658C1233.84 146.914 1234.94 151.195 1237.13 154.501C1239.33 157.807 1242.21 160.393 1245.77 162.258C1249.39 164.123 1253.44 165.395 1257.95 166.073C1262.45 166.751 1267.03 167.09 1271.69 167.09C1276.46 167.09 1281.07 166.751 1285.52 166.073C1290.02 165.31 1294 163.996 1297.45 162.131C1300.96 160.181 1303.76 157.553 1305.86 154.247C1308.01 150.941 1309.08 146.744 1309.08 141.658V110.63H1213.41V45.5237C1213.41 39.8438 1214.17 34.8421 1215.69 30.5186C1217.26 26.1104 1219.38 22.2955 1222.05 19.0741C1224.78 15.7679 1228 13.0127 1231.71 10.8086C1235.43 8.51975 1239.44 6.69711 1243.73 5.34072C1248.08 3.98433 1252.61 3.00943 1257.32 2.41601C1262.08 1.82259 1266.88 1.52588 1271.69 1.52588Z" fill="#393939"/>
<path d="M1349.13 57.9856C1350.6 57.3074 1352.75 56.4597 1355.58 55.4424C1358.45 54.4251 1361.86 53.4926 1365.79 52.6448C1369.71 51.7123 1374.08 50.9493 1378.9 50.3559C1383.77 49.6777 1388.98 49.3386 1394.53 49.3386C1404.38 49.3386 1413.04 50.5255 1420.53 52.8991C1428.07 55.2728 1434.38 59.2996 1439.46 64.9795C1444.54 70.6593 1448.36 78.2043 1450.92 87.6142C1453.54 97.0241 1454.85 108.765 1454.85 122.838C1454.85 136.656 1453.44 148.228 1450.61 157.553C1447.78 166.793 1443.91 174.211 1438.99 179.806C1434.06 185.401 1428.3 189.386 1421.71 191.759C1415.11 194.133 1408.04 195.32 1400.5 195.32C1394.32 195.32 1388.59 194.726 1383.3 193.54C1378.01 192.353 1373.33 190.403 1369.24 187.69V243.641H1349.13V57.9856ZM1395.47 76.5512C1392.07 76.5512 1389.03 76.7207 1386.36 77.0598C1383.75 77.3989 1381.36 77.8652 1379.22 78.4586C1377.12 78.9672 1375.26 79.603 1373.64 80.366C1372.02 81.0442 1370.55 81.8072 1369.24 82.6549V164.038C1371.49 165.055 1373.59 165.903 1375.52 166.581C1377.51 167.175 1379.63 167.641 1381.89 167.98C1384.19 168.319 1386.81 168.574 1389.74 168.743C1392.73 168.828 1396.31 168.87 1400.5 168.87C1406.68 168.87 1411.94 167.726 1416.29 165.437C1420.69 163.063 1424.27 159.842 1427.05 155.773C1429.88 151.704 1431.94 146.871 1433.25 141.276C1434.56 135.596 1435.22 129.45 1435.22 122.838C1435.22 113.852 1434.33 106.392 1432.55 100.457C1430.77 94.5233 1428.17 89.7759 1424.77 86.2154C1421.37 82.6549 1417.2 80.1541 1412.28 78.7129C1407.36 77.2717 1401.76 76.5512 1395.47 76.5512Z" fill="#393939"/>
<path d="M1528.68 50.3559C1536.74 50.3559 1543.66 51.458 1549.42 53.6621C1555.18 55.7815 1559.89 59.0029 1563.55 63.3264C1567.27 67.5651 1569.97 72.8635 1571.64 79.2215C1573.37 85.5796 1574.23 92.9974 1574.23 101.475V195.32H1553.66V109.359C1553.66 104.611 1553.26 100.542 1552.48 97.1513C1551.69 93.6756 1550.62 90.7508 1549.26 88.3772C1547.95 85.9187 1546.4 83.9265 1544.62 82.4006C1542.84 80.8746 1540.99 79.7302 1539.05 78.9672C1537.16 78.1195 1535.23 77.5684 1533.24 77.3141C1531.25 76.975 1529.36 76.8055 1527.58 76.8055C1524.23 76.8055 1521.04 77.187 1518 77.9499C1514.96 78.7129 1512.08 79.7726 1509.36 81.129C1506.64 82.4006 1504.07 83.9265 1501.66 85.7068C1499.25 87.487 1497 89.3521 1494.91 91.3019V195.32H1474.33V1.78027H1494.91V67.1412C1497.32 64.7675 1499.78 62.5634 1502.29 60.5288C1504.8 58.4942 1507.42 56.714 1510.14 55.188C1512.92 53.6621 1515.83 52.4753 1518.86 51.6275C1521.95 50.7798 1525.22 50.3559 1528.68 50.3559Z" fill="#393939"/>
<path d="M1652.78 50.356C1655.45 50.356 1658.67 50.5679 1662.44 50.9918C1666.21 51.4157 1670.11 52.1787 1674.14 53.2807C1678.22 54.298 1682.26 55.7816 1686.24 57.7314C1690.21 59.5964 1693.78 62.0125 1696.92 64.9796C1700.11 67.9467 1702.68 71.5496 1704.61 75.7883C1706.6 79.9422 1707.6 84.8591 1707.6 90.539V133.519H1617.59V166.073C1623.93 167.514 1630.03 168.531 1635.89 169.125C1641.75 169.633 1647.38 169.888 1652.78 169.888C1661 169.888 1668.43 169.379 1675.08 168.362C1681.78 167.344 1687.57 166.2 1692.44 164.928C1698.04 163.487 1703.1 161.834 1707.6 159.969V188.199C1697.65 190.742 1688.04 192.565 1678.77 193.667C1669.56 194.769 1660.89 195.32 1652.78 195.32C1644.61 195.32 1637.2 194.981 1630.55 194.303C1623.9 193.54 1618.19 192.692 1613.43 191.759C1607.88 190.742 1602.88 189.555 1598.43 188.199V90.539C1598.43 84.8591 1599.29 79.9422 1601.02 75.7883C1602.75 71.5496 1605.05 67.9467 1607.93 64.9796C1610.81 62.0125 1614.11 59.5964 1617.83 57.7314C1621.6 55.7816 1625.5 54.298 1629.53 53.2807C1633.56 52.1787 1637.57 51.4157 1641.54 50.9918C1645.58 50.5679 1649.32 50.356 1652.78 50.356ZM1617.59 113.174H1688.12V98.423C1688.12 94.9473 1687.6 91.9802 1686.55 89.5217C1685.5 86.9785 1684.09 84.8591 1682.31 83.1636C1680.58 81.4682 1678.54 80.1118 1676.18 79.0945C1673.88 77.9924 1671.47 77.1871 1668.96 76.6784C1666.44 76.085 1663.9 75.7035 1661.34 75.534C1658.82 75.3644 1656.44 75.2796 1654.19 75.2796C1651.83 75.2796 1649.29 75.3644 1646.57 75.534C1643.9 75.7035 1641.2 76.085 1638.48 76.6784C1635.76 77.2718 1633.14 78.1196 1630.63 79.2216C1628.11 80.2389 1625.89 81.6377 1623.95 83.418C1622.01 85.1135 1620.47 87.2328 1619.32 89.776C1618.17 92.2345 1617.59 95.2016 1617.59 98.6773V113.174Z" fill="#393939"/>
<path d="M1801.38 50.356C1801.38 59.1725 1801.19 68.3705 1800.83 77.95C1800.46 87.4447 1799.75 97.2362 1798.71 107.324H1779.7C1780.17 104.442 1780.62 101.305 1781.03 97.9144C1781.35 95.032 1781.64 91.6835 1781.9 87.8686C1782.21 83.969 1782.37 79.8575 1782.37 75.534C1777.76 75.7035 1773.94 76.4241 1770.9 77.6957C1767.92 78.8825 1765.43 80.3237 1763.44 82.0192C1761.45 83.6299 1759.83 85.283 1758.57 86.9785C1757.32 88.674 1756.19 90.0304 1755.19 91.0477V195.32H1735.09V90.2847C1734.88 87.5719 1734.38 85.283 1733.6 83.418C1732.86 81.5529 1732.08 80.027 1731.24 78.8402C1730.3 77.399 1729.22 76.2122 1728.02 75.2796L1736.34 50.356C1738.28 51.4581 1740.19 52.9416 1742.08 54.8067C1743.7 56.4174 1745.4 58.4943 1747.18 61.0376C1749.02 63.496 1750.64 66.5479 1752.05 70.1932C1754.72 67.2261 1757.18 64.7252 1759.44 62.6907C1761.69 60.5713 1763.86 58.791 1765.95 57.3499C1768.1 55.9087 1770.3 54.8067 1772.55 54.0437C1774.86 53.1959 1777.37 52.5178 1780.09 52.0091C1782.87 51.5005 1785.96 51.1614 1789.36 50.9918C1792.82 50.7375 1796.82 50.5256 1801.38 50.356Z" fill="#393939"/>
<path d="M1875.83 50.356C1878.51 50.356 1881.73 50.5679 1885.5 50.9918C1889.27 51.4157 1893.17 52.1787 1897.2 53.2807C1901.28 54.298 1905.31 55.7816 1909.29 57.7314C1913.27 59.5964 1916.83 62.0125 1919.97 64.9796C1923.17 67.9467 1925.73 71.5496 1927.67 75.7883C1929.66 79.9422 1930.66 84.8591 1930.66 90.539V133.519H1840.65V166.073C1846.98 167.514 1853.08 168.531 1858.95 169.125C1864.81 169.633 1870.44 169.888 1875.83 169.888C1884.06 169.888 1891.49 169.379 1898.14 168.362C1904.84 167.344 1910.63 166.2 1915.5 164.928C1921.1 163.487 1926.15 161.834 1930.66 159.969V188.199C1920.71 190.742 1911.1 192.565 1901.83 193.667C1892.62 194.769 1883.95 195.32 1875.83 195.32C1867.67 195.32 1860.26 194.981 1853.61 194.303C1846.96 193.54 1841.25 192.692 1836.49 191.759C1830.93 190.742 1825.93 189.555 1821.48 188.199V90.539C1821.48 84.8591 1822.35 79.9422 1824.08 75.7883C1825.8 71.5496 1828.11 67.9467 1830.99 64.9796C1833.87 62.0125 1837.17 59.5964 1840.88 57.7314C1844.65 55.7816 1848.55 54.298 1852.59 53.2807C1856.62 52.1787 1860.62 51.4157 1864.6 50.9918C1868.63 50.5679 1872.38 50.356 1875.83 50.356ZM1840.65 113.174H1911.18V98.423C1911.18 94.9473 1910.65 91.9802 1909.61 89.5217C1908.56 86.9785 1907.15 84.8591 1905.37 83.1636C1903.64 81.4682 1901.6 80.1118 1899.24 79.0945C1896.94 77.9924 1894.53 77.1871 1892.01 76.6784C1889.5 76.085 1886.96 75.7035 1884.4 75.534C1881.88 75.3644 1879.5 75.2796 1877.25 75.2796C1874.89 75.2796 1872.35 75.3644 1869.63 75.534C1866.96 75.7035 1864.26 76.085 1861.54 76.6784C1858.82 77.2718 1856.2 78.1196 1853.69 79.2216C1851.17 80.2389 1848.95 81.6377 1847.01 83.418C1845.07 85.1135 1843.53 87.2328 1842.38 89.776C1841.22 92.2345 1840.65 95.2016 1840.65 98.6773V113.174Z" fill="#393939"/>
<path d="M554.469 300.075V391.329H543.455V300.075H554.469Z" fill="#393939"/>
<path d="M708.703 300.075V391.329H698.044L648.482 319.68H647.594V391.329H636.58V300.075H647.239L696.978 371.902H697.867V300.075H708.703Z" fill="#393939"/>
<path d="M785.799 309.877V300.075H854.013V309.877H825.413V391.329H814.399V309.877H785.799Z" fill="#393939"/>
<path d="M931.039 391.329V300.075H985.931V309.877H942.053V340.711H983.089V350.514H942.053V381.526H986.642V391.329H931.039Z" fill="#393939"/>
<path d="M1065.81 391.329V300.075H1096.54C1103.65 300.075 1109.48 301.293 1114.04 303.729C1118.6 306.135 1121.98 309.447 1124.17 313.665C1126.36 317.883 1127.45 322.68 1127.45 328.057C1127.45 333.434 1126.36 338.201 1124.17 342.36C1121.98 346.519 1118.62 349.786 1114.09 352.163C1109.56 354.51 1103.77 355.683 1096.72 355.683H1071.85V345.702H1096.37C1101.22 345.702 1105.13 344.989 1108.09 343.563C1111.08 342.137 1113.24 340.117 1114.57 337.503C1115.94 334.86 1116.62 331.711 1116.62 328.057C1116.62 324.403 1115.94 321.21 1114.57 318.477C1113.21 315.744 1111.04 313.635 1108.05 312.15C1105.06 310.635 1101.1 309.877 1096.19 309.877H1076.83V391.329H1065.81ZM1108.62 350.336L1131.01 391.329H1118.22L1096.19 350.336H1108.62Z" fill="#393939"/>
<path d="M1209.57 391.329H1198.02L1231.42 300.075H1242.78L1276.18 391.329H1264.63L1237.46 314.511H1236.74L1209.57 391.329ZM1213.83 355.683H1260.37V365.486H1213.83V355.683Z" fill="#393939"/>
<path d="M1419.29 328.592H1408.28C1407.63 325.413 1406.49 322.621 1404.86 320.215C1403.26 317.809 1401.31 315.789 1399 314.155C1396.72 312.492 1394.18 311.244 1391.4 310.412C1388.62 309.58 1385.72 309.165 1382.7 309.165C1377.19 309.165 1372.2 310.561 1367.73 313.353C1363.29 316.145 1359.75 320.259 1357.12 325.696C1354.51 331.132 1353.21 337.8 1353.21 345.702C1353.21 353.604 1354.51 360.272 1357.12 365.708C1359.75 371.144 1363.29 375.259 1367.73 378.051C1372.2 380.843 1377.19 382.239 1382.7 382.239C1385.72 382.239 1388.62 381.824 1391.4 380.992C1394.18 380.16 1396.72 378.927 1399 377.293C1401.31 375.63 1403.26 373.595 1404.86 371.189C1406.49 368.753 1407.63 365.961 1408.28 362.812H1419.29C1418.46 367.476 1416.95 371.649 1414.76 375.333C1412.57 379.016 1409.85 382.15 1406.59 384.735C1403.33 387.289 1399.68 389.235 1395.62 390.572C1391.59 391.908 1387.29 392.577 1382.7 392.577C1374.94 392.577 1368.04 390.676 1362 386.873C1355.96 383.071 1351.21 377.665 1347.75 370.654C1344.28 363.644 1342.55 355.326 1342.55 345.702C1342.55 336.077 1344.28 327.76 1347.75 320.75C1351.21 313.739 1355.96 308.333 1362 304.531C1368.04 300.728 1374.94 298.827 1382.7 298.827C1387.29 298.827 1391.59 299.496 1395.62 300.832C1399.68 302.169 1403.33 304.13 1406.59 306.714C1409.85 309.269 1412.57 312.388 1414.76 316.071C1416.95 319.725 1418.46 323.898 1419.29 328.592Z" fill="#393939"/>
<path d="M1492.14 309.877V300.075H1560.36V309.877H1531.76V391.329H1520.74V309.877H1492.14Z" fill="#393939"/>
<path d="M1648.4 300.075V391.329H1637.39V300.075H1648.4Z" fill="#393939"/>
<path d="M1734.24 300.075L1761.24 376.892H1762.31L1789.31 300.075H1800.86L1767.46 391.329H1756.09L1722.7 300.075H1734.24Z" fill="#393939"/>
<path d="M1875.05 391.329V300.075H1929.95V309.877H1886.07V340.711H1927.1V350.514H1886.07V381.526H1930.66V391.329H1875.05Z" fill="#393939"/>
</g>
<defs>
<clipPath id="clip0_17_31">
<rect width="1931" height="400" fill="white"/>
</clipPath>
</defs>
</svg>
