<svg width="791" height="200" viewBox="0 0 791 200" fill="none" xmlns="http://www.w3.org/2000/svg">
<path d="M33.3327 66.6673C14.9307 66.6673 0 51.7424 0 33.3327C0 14.923 14.9307 0 33.3327 0C51.7404 0 66.6654 14.9249 66.6654 33.3327C66.6654 51.7404 81.5922 66.6673 100 66.6673C118.408 66.6673 133.333 51.7424 133.333 33.3346C133.333 14.9269 148.26 0 166.667 0C185.075 0 200 14.9249 200 33.3327C200 51.7404 185.075 66.6654 166.667 66.6654C111.433 66.6654 66.6673 111.45 66.6673 166.663C66.6673 185.062 51.7424 199.996 33.3346 199.996C14.9269 199.996 0 185.075 0 166.667C0 148.26 14.9249 133.333 33.3327 133.333C51.7404 133.333 66.6616 118.408 66.6616 100C66.6616 81.5922 51.7424 66.6673 33.3327 66.6673Z" fill="#393939"/>
<path d="M91.6668 145.831C91.6668 115.9 115.913 91.6649 145.835 91.6649C175.758 91.6668 200 115.9 200 145.831C200 175.75 175.758 200 145.831 200C115.909 200 91.6668 175.75 91.6668 145.831Z" fill="#393939"/>
<path d="M277.723 47.875C283.094 47.875 287.708 48.4854 291.565 49.7061C295.472 50.9268 298.743 52.5137 301.38 54.4668C304.065 56.4199 306.214 58.6416 307.825 61.1318C309.437 63.5732 310.657 66.0635 311.487 68.6025C312.366 71.1416 312.928 73.583 313.172 75.9268C313.465 78.2705 313.611 80.2969 313.611 82.0059C313.611 82.7383 313.538 83.6416 313.392 84.7158C313.294 85.7412 312.879 86.7422 312.146 87.7188C311.414 88.6953 310.242 89.5254 308.631 90.209C307.068 90.8926 304.822 91.2344 301.893 91.2344C300.916 91.2344 299.695 91.1855 298.23 91.0879C296.766 90.9414 295.35 90.624 293.982 90.1357C292.615 89.5986 291.443 88.8662 290.467 87.9385C289.49 86.9619 289.002 85.6191 289.002 83.9102C289.002 81.2734 288.831 78.9053 288.489 76.8057C288.196 74.7061 287.635 72.9238 286.805 71.459C285.975 69.9941 284.827 68.8711 283.362 68.0898C281.897 67.3086 280.018 66.918 277.723 66.918C275.33 66.918 273.475 67.4307 272.156 68.4561C270.887 69.4326 269.959 70.5068 269.373 71.6787C268.689 73.0947 268.299 74.6816 268.201 76.4395V122.875C268.299 125.023 268.689 126.903 269.373 128.515C269.959 129.931 270.887 131.225 272.156 132.396C273.475 133.568 275.33 134.154 277.723 134.154C280.018 134.154 281.897 133.69 283.362 132.763C284.827 131.786 285.975 130.492 286.805 128.881C287.635 127.27 288.196 125.414 288.489 123.314C288.831 121.215 289.002 119.018 289.002 116.723C289.002 115.99 289.124 115.233 289.368 114.452C289.612 113.671 290.174 112.963 291.053 112.328C291.932 111.645 293.226 111.083 294.935 110.644C296.644 110.204 298.963 109.984 301.893 109.984C304.822 109.984 307.068 110.326 308.631 111.01C310.242 111.645 311.414 112.401 312.146 113.28C312.879 114.11 313.294 114.94 313.392 115.771C313.538 116.552 313.611 117.064 313.611 117.309C313.611 122.68 312.708 127.489 310.901 131.737C309.095 135.937 306.531 139.501 303.211 142.431C299.939 145.36 296.009 147.606 291.419 149.169C286.878 150.683 281.873 151.439 276.404 151.439C275.525 151.439 274.085 151.366 272.083 151.22C270.13 151.073 267.933 150.683 265.491 150.048C263.05 149.413 260.535 148.461 257.947 147.191C255.359 145.922 252.991 144.164 250.843 141.918C248.743 139.623 247.01 136.791 245.643 133.422C244.275 130.004 243.592 125.854 243.592 120.971V80.1016C243.592 76.0977 244.08 72.5576 245.057 69.4814C246.033 66.4053 247.303 63.7441 248.865 61.498C250.477 59.2031 252.308 57.2988 254.358 55.7852C256.409 54.2227 258.509 52.9287 260.657 51.9033C265.638 49.5596 271.326 48.2168 277.723 47.875Z" fill="#393939"/>
<path d="M324.012 105.297C324.012 100.805 324.622 96.9961 325.843 93.8711C327.063 90.7461 328.626 88.1338 330.53 86.0342C332.483 83.9346 334.632 82.2988 336.976 81.127C339.368 79.9551 341.712 79.0762 344.007 78.4902C346.302 77.9043 348.426 77.5381 350.379 77.3916C352.381 77.2451 353.943 77.1719 355.066 77.1719C356.189 77.1719 357.728 77.2451 359.681 77.3916C361.634 77.5381 363.709 77.9043 365.906 78.4902C368.152 79.0762 370.398 79.9551 372.645 81.127C374.939 82.2988 376.99 83.9346 378.797 86.0342C380.652 88.1338 382.166 90.7461 383.338 93.8711C384.51 96.9961 385.096 100.805 385.096 105.297V123.461C385.096 127.953 384.51 131.762 383.338 134.887C382.166 138.012 380.652 140.624 378.797 142.724C376.99 144.823 374.939 146.459 372.645 147.631C370.398 148.803 368.152 149.682 365.906 150.268C363.709 150.854 361.634 151.22 359.681 151.366C357.728 151.513 356.189 151.586 355.066 151.586C353.943 151.586 352.381 151.513 350.379 151.366C348.426 151.22 346.302 150.854 344.007 150.268C341.712 149.682 339.368 148.803 336.976 147.631C334.632 146.459 332.483 144.823 330.53 142.724C328.626 140.624 327.063 138.012 325.843 134.887C324.622 131.762 324.012 127.953 324.012 123.461V105.297ZM346.57 128.588C346.619 130.004 346.961 131.249 347.596 132.323C348.133 133.3 348.963 134.179 350.086 134.96C351.258 135.692 352.918 136.059 355.066 136.059C357.117 136.059 358.68 135.692 359.754 134.96C360.877 134.179 361.707 133.3 362.244 132.323C362.83 131.249 363.172 130.004 363.27 128.588V102.074C363.172 100.609 362.83 99.2666 362.244 98.0459C361.707 97.0693 360.877 96.166 359.754 95.3359C358.68 94.457 357.117 94.0176 355.066 94.0176C352.918 94.0176 351.258 94.457 350.086 95.3359C348.963 96.166 348.133 97.0693 347.596 98.0459C346.961 99.2666 346.619 100.609 346.57 102.074V128.588Z" fill="#393939"/>
<path d="M409.266 115.844C407.898 115.844 406.58 115.771 405.311 115.624C404.041 115.429 402.918 115.038 401.941 114.452C400.965 113.817 400.184 112.938 399.598 111.815C399.012 110.644 398.719 109.057 398.719 107.055C398.719 104.906 399.012 103.222 399.598 102.001C400.184 100.78 400.965 99.877 401.941 99.291C402.918 98.7051 404.041 98.3389 405.311 98.1924C406.58 98.0459 407.898 97.9727 409.266 97.9727H441.639C442.859 97.9727 444.104 98.0459 445.374 98.1924C446.644 98.3389 447.767 98.7051 448.743 99.291C449.769 99.877 450.599 100.78 451.233 102.001C451.868 103.222 452.186 104.906 452.186 107.055C452.186 109.057 451.868 110.644 451.233 111.815C450.599 112.938 449.769 113.817 448.743 114.452C447.767 115.038 446.644 115.429 445.374 115.624C444.104 115.771 442.859 115.844 441.639 115.844H409.266Z" fill="#393939"/>
<path d="M523.23 48.9004C524.598 48.9004 525.867 49.1445 527.039 49.6328C528.26 50.1211 529.334 50.8047 530.262 51.6836C531.238 52.5137 532.068 53.5391 532.752 54.7598C533.436 55.9316 533.924 57.2012 534.217 58.5684L546.814 117.016H549.305C551.355 107.494 553.455 97.7773 555.604 87.8652C557.752 77.9043 559.9 68.1387 562.049 58.5684C562.488 56.7129 563.147 55.0283 564.026 53.5146C564.808 52.2451 565.882 51.0977 567.249 50.0723C568.665 48.998 570.496 48.4609 572.742 48.4609C574.451 48.4609 575.94 48.7783 577.21 49.4131C578.528 49.999 579.603 50.7803 580.433 51.7568C581.312 52.6846 581.946 53.71 582.337 54.833C582.776 55.9561 582.996 57.0547 582.996 58.1289C582.996 58.7148 582.972 59.2764 582.923 59.8135C582.874 60.3506 582.801 60.8145 582.703 61.2051C582.605 61.6934 582.508 62.1328 582.41 62.5234L562.342 142.211C561.609 143.871 560.633 145.336 559.412 146.605C558.387 147.729 557.044 148.754 555.384 149.682C553.772 150.561 551.746 151 549.305 151H546.814C544.373 151 542.371 150.561 540.809 149.682C539.246 148.754 538.001 147.729 537.073 146.605C535.999 145.336 535.193 143.871 534.656 142.211L524.402 99.291H521.912C520.35 106.225 518.665 113.378 516.858 120.751C515.101 128.124 513.416 135.277 511.805 142.211C511.17 143.871 510.315 145.336 509.241 146.605C508.265 147.729 506.995 148.754 505.433 149.682C503.919 150.561 501.941 151 499.5 151H497.01C494.568 151 492.493 150.561 490.784 149.682C489.124 148.754 487.757 147.729 486.683 146.605C485.413 145.336 484.412 143.871 483.68 142.211L463.904 62.5234C463.807 62.1328 463.709 61.6934 463.611 61.2051C463.514 60.8145 463.44 60.3506 463.392 59.8135C463.343 59.2764 463.318 58.7148 463.318 58.1289C463.318 57.0547 463.514 55.9561 463.904 54.833C464.344 53.71 464.979 52.6846 465.809 51.7568C466.688 50.7803 467.762 49.999 469.031 49.4131C470.35 48.7783 471.863 48.4609 473.572 48.4609C475.818 48.4609 477.625 48.998 478.992 50.0723C480.408 51.0977 481.507 52.2451 482.288 53.5146C483.167 55.0283 483.826 56.7129 484.266 58.5684L497.01 117.016H499.5C500.428 112.523 501.429 107.812 502.503 102.88C503.577 97.8994 504.651 92.8945 505.726 87.8652C506.849 82.7871 507.947 77.7822 509.021 72.8506C510.145 67.8701 511.219 63.1094 512.244 58.5684C512.928 55.7852 514.246 53.4902 516.199 51.6836C518.152 49.8281 520.496 48.9004 523.23 48.9004Z" fill="#393939"/>
<path d="M650.379 134.447C650.379 136.498 650.306 138.524 650.159 140.526C650.013 142.479 649.573 144.237 648.841 145.8C648.108 147.362 647.01 148.632 645.545 149.608C644.08 150.536 642.029 151 639.393 151C636.707 151 634.607 150.561 633.094 149.682C631.58 148.754 630.457 147.655 629.725 146.386C628.992 145.067 628.528 143.7 628.333 142.284C628.187 140.868 628.113 139.672 628.113 138.695C627.674 140.111 627.039 141.552 626.209 143.017C625.428 144.481 624.402 145.8 623.133 146.972C621.863 148.144 620.325 149.12 618.519 149.901C616.761 150.634 614.686 151 612.293 151C609.607 151 606.922 150.561 604.236 149.682C601.551 148.803 599.134 147.338 596.985 145.287C594.837 143.236 593.079 140.575 591.712 137.304C590.394 133.983 589.734 129.906 589.734 125.072V103.832C589.734 98.9492 590.394 94.8721 591.712 91.6006C593.079 88.2803 594.837 85.6191 596.985 83.6172C599.134 81.5664 601.551 80.1016 604.236 79.2227C606.922 78.3438 609.607 77.9043 612.293 77.9043C614.686 77.9043 616.761 78.2705 618.519 79.0029C620.325 79.7354 621.863 80.6875 623.133 81.8594C624.402 83.0312 625.428 84.3496 626.209 85.8145C627.039 87.2793 627.674 88.7441 628.113 90.209C628.113 87.7676 628.455 85.7412 629.139 84.1299C629.822 82.5186 630.701 81.249 631.775 80.3213C632.85 79.3447 634.046 78.6855 635.364 78.3438C636.731 77.9531 638.074 77.7578 639.393 77.7578C641.834 77.7578 643.787 78.2461 645.252 79.2227C646.717 80.1504 647.815 81.3955 648.548 82.958C649.329 84.4717 649.817 86.2539 650.013 88.3047C650.257 90.3066 650.379 92.3574 650.379 94.457V134.447ZM612.293 123.168C612.293 124.486 612.342 125.78 612.439 127.05C612.537 128.319 612.806 129.467 613.245 130.492C613.685 131.518 614.319 132.348 615.149 132.982C616.028 133.568 617.225 133.861 618.738 133.861C620.643 133.861 622.181 133.446 623.353 132.616C624.573 131.737 625.525 130.419 626.209 128.661C626.893 126.854 627.356 124.608 627.601 121.923C627.894 119.188 628.064 115.941 628.113 112.182C628.113 110.668 627.967 108.935 627.674 106.981C627.43 104.979 626.966 103.1 626.282 101.342C625.599 99.584 624.646 98.0947 623.426 96.874C622.205 95.6533 620.643 95.043 618.738 95.043C617.225 95.043 616.028 95.3604 615.149 95.9951C614.319 96.5811 613.685 97.3623 613.245 98.3389C612.806 99.3154 612.537 100.438 612.439 101.708C612.342 102.929 612.293 104.174 612.293 105.443V123.168Z" fill="#393939"/>
<path d="M702.088 139.574C701.014 142.406 700.013 144.604 699.085 146.166C698.157 147.68 697.254 148.803 696.375 149.535C695.496 150.268 694.617 150.707 693.738 150.854C692.859 150.951 691.932 151 690.955 151C689.881 151 688.88 150.951 687.952 150.854C687.024 150.707 686.097 150.292 685.169 149.608C684.241 148.876 683.289 147.753 682.312 146.239C681.336 144.677 680.311 142.455 679.236 139.574L662.684 96.2148C662.244 95.043 661.829 93.7979 661.438 92.4795C661.097 91.1123 660.926 89.7695 660.926 88.4512C660.926 87.0352 661.097 85.6924 661.438 84.4229C661.829 83.1045 662.439 81.957 663.27 80.9805C664.1 80.0039 665.174 79.2227 666.492 78.6367C667.811 78.0508 669.422 77.7578 671.326 77.7578C672.693 77.7578 673.938 78.0508 675.062 78.6367C676.233 79.2227 677.259 80.0039 678.138 80.9805C679.065 81.957 679.871 83.0801 680.555 84.3496C681.238 85.6191 681.775 86.9375 682.166 88.3047L690.369 114.965H691.541L699.158 88.3047C699.5 87.084 699.988 85.8389 700.623 84.5693C701.258 83.2998 702.015 82.1768 702.894 81.2002C703.821 80.1748 704.896 79.3447 706.116 78.71C707.386 78.0752 708.826 77.7578 710.438 77.7578C712.195 77.7578 713.685 78.0752 714.905 78.71C716.126 79.2959 717.127 80.1016 717.908 81.127C718.689 82.1035 719.251 83.251 719.593 84.5693C719.935 85.8877 720.105 87.2305 720.105 88.5977C720.105 89.8672 719.935 91.1367 719.593 92.4062C719.3 93.6758 718.885 94.9453 718.348 96.2148L702.088 139.574Z" fill="#393939"/>
<path d="M791.004 109.252C791.004 110.033 790.955 110.961 790.857 112.035C790.76 113.061 790.369 114.062 789.686 115.038C789.051 115.966 788.025 116.771 786.609 117.455C785.193 118.139 783.191 118.48 780.604 118.48H751.453V125.512C751.453 126.684 751.6 127.904 751.893 129.174C752.186 130.443 752.674 131.615 753.357 132.689C754.09 133.764 755.042 134.643 756.214 135.326C757.386 136.01 758.826 136.352 760.535 136.352C762.488 136.352 763.978 136.132 765.003 135.692C766.077 135.204 766.907 134.618 767.493 133.935C768.128 133.251 768.689 132.519 769.178 131.737C769.666 130.956 770.301 130.224 771.082 129.54C771.912 128.856 773.035 128.295 774.451 127.855C775.916 127.367 777.918 127.123 780.457 127.123C781.678 127.123 782.85 127.221 783.973 127.416C785.145 127.611 786.17 127.978 787.049 128.515C787.928 129.052 788.636 129.809 789.173 130.785C789.71 131.713 789.979 132.934 789.979 134.447C789.979 137.621 788.978 140.282 786.976 142.431C784.974 144.53 782.459 146.215 779.432 147.484C776.404 148.754 773.108 149.657 769.544 150.194C766.028 150.731 762.732 151 759.656 151C755.604 150.951 751.746 150.438 748.084 149.462C744.422 148.485 741.175 146.923 738.343 144.774C735.56 142.626 733.338 139.818 731.678 136.352C730.018 132.885 729.188 128.637 729.188 123.607V106.469C729.188 101.83 729.725 97.8994 730.799 94.6768C731.922 91.4541 733.362 88.7686 735.12 86.6201C736.878 84.4717 738.855 82.8115 741.053 81.6396C743.25 80.4189 745.472 79.5156 747.718 78.9297C749.964 78.3438 752.088 77.9775 754.09 77.8311C756.141 77.6846 757.898 77.6113 759.363 77.6113C764.295 77.6113 768.494 78.0508 771.961 78.9297C775.477 79.8086 778.406 80.9561 780.75 82.3721C783.094 83.7881 784.949 85.4238 786.316 87.2793C787.684 89.1348 788.709 91.0635 789.393 93.0654C790.076 95.0186 790.516 97.0205 790.711 99.0713C790.906 101.073 791.004 102.953 791.004 104.711V109.252ZM751.453 107.494H769.764C769.764 105.199 769.69 103.173 769.544 101.415C769.446 99.6084 769.08 98.0947 768.445 96.874C767.859 95.6533 766.907 94.7256 765.589 94.0908C764.319 93.4561 762.488 93.1387 760.096 93.1387C758.094 93.1387 756.507 93.4561 755.335 94.0908C754.212 94.7256 753.357 95.5312 752.771 96.5078C752.186 97.4355 751.819 98.4365 751.673 99.5107C751.526 100.585 751.453 101.537 751.453 102.367V107.494Z" fill="#393939"/>
</svg>
