<svg width="730" height="108" viewBox="0 0 730 108" fill="none" xmlns="http://www.w3.org/2000/svg">
<path d="M29.2236 107.52C23.8037 107.52 18.9209 106.177 14.5752 103.491C10.1807 100.806 6.64062 97.1924 3.95508 92.6514C1.31836 88.1104 0 83.0322 0 77.417V29.8828C0 24.4141 1.34277 19.4336 4.02832 14.9414C6.66504 10.4004 10.2051 6.78711 14.6484 4.10156C19.0918 1.36719 23.9502 0 29.2236 0C34.7412 0 39.7217 1.31836 44.165 3.95508C48.6084 6.64062 52.124 10.2295 54.7119 14.7217C57.3486 19.2139 58.667 24.2676 58.667 29.8828V36.7676C58.667 37.1582 58.4229 37.3535 57.9346 37.3535H41.0889C40.6982 37.3535 40.5029 37.1582 40.5029 36.7676V31.0547C40.5029 27.2461 39.4287 24.0967 37.2803 21.6064C35.1318 19.1162 32.4463 17.8711 29.2236 17.8711C26.3428 17.8711 23.7793 19.0674 21.5332 21.46C19.2871 23.8525 18.1641 26.6602 18.1641 29.8828V77.417C18.1641 80.6885 19.2627 83.5205 21.46 85.9131C23.6572 88.2568 26.2451 89.4287 29.2236 89.4287C32.4463 89.4287 35.1318 88.2812 37.2803 85.9863C39.4287 83.6426 40.5029 80.7861 40.5029 77.417V70.0195H30.0293C29.4922 70.0195 29.2236 69.7754 29.2236 69.2871V52.5146C29.2236 52.0264 29.4922 51.7822 30.0293 51.7822H58.0811C58.4717 51.7822 58.667 52.0264 58.667 52.5146V77.417C58.667 83.0322 57.3486 88.1104 54.7119 92.6514C52.0264 97.1924 48.4863 100.806 44.0918 103.491C39.6973 106.177 34.7412 107.52 29.2236 107.52Z" fill="#393939"/>
<path d="M86.8652 106.055H69.873C69.4824 106.055 69.2871 105.811 69.2871 105.322L69.5801 2.27051C69.5801 1.87988 69.7754 1.68457 70.166 1.68457H100.488C105.908 1.68457 110.889 3.00293 115.43 5.63965C119.971 8.27637 123.584 11.8164 126.27 16.2598C129.004 20.7031 130.371 25.7324 130.371 31.3477C130.371 35.0098 129.81 38.3301 128.687 41.3086C127.563 44.2871 126.245 46.8018 124.731 48.8525C123.267 50.9033 121.924 52.417 120.703 53.3936C126.123 59.3994 128.833 66.4551 128.833 74.5605L128.979 105.322C128.979 105.811 128.735 106.055 128.247 106.055H111.255C110.864 106.055 110.669 105.908 110.669 105.615V74.5605C110.669 70.9473 109.399 67.8223 106.86 65.1855C104.321 62.5488 101.196 61.2305 97.4854 61.2305H87.5977L87.4512 105.322C87.4512 105.811 87.2559 106.055 86.8652 106.055ZM100.488 19.6289H87.5977V43.2129H100.488C103.564 43.2129 106.299 42.0654 108.691 39.7705C111.133 37.4756 112.354 34.668 112.354 31.3477C112.354 28.1738 111.182 25.4395 108.838 23.1445C106.494 20.8008 103.711 19.6289 100.488 19.6289Z" fill="#393939"/>
<path d="M190.723 106.055H142.236C141.846 106.055 141.65 105.811 141.65 105.322L141.797 2.27051C141.797 1.87988 141.992 1.68457 142.383 1.68457H190.576C190.967 1.68457 191.162 1.92871 191.162 2.41699V19.1895C191.162 19.5801 190.967 19.7754 190.576 19.7754H159.814V43.2129H190.576C190.967 43.2129 191.162 43.4082 191.162 43.7988L191.309 60.791C191.309 61.1816 191.113 61.377 190.723 61.377H159.814V87.5977H190.723C191.113 87.5977 191.309 87.8418 191.309 88.3301V105.469C191.309 105.859 191.113 106.055 190.723 106.055Z" fill="#393939"/>
<path d="M253.711 106.055H205.225C204.834 106.055 204.639 105.811 204.639 105.322L204.785 2.27051C204.785 1.87988 204.98 1.68457 205.371 1.68457H253.564C253.955 1.68457 254.15 1.92871 254.15 2.41699V19.1895C254.15 19.5801 253.955 19.7754 253.564 19.7754H222.803V43.2129H253.564C253.955 43.2129 254.15 43.4082 254.15 43.7988L254.297 60.791C254.297 61.1816 254.102 61.377 253.711 61.377H222.803V87.5977H253.711C254.102 87.5977 254.297 87.8418 254.297 88.3301V105.469C254.297 105.859 254.102 106.055 253.711 106.055Z" fill="#393939"/>
<path d="M283.96 106.055H268.945C268.164 106.055 267.773 105.713 267.773 105.029L267.627 2.85645C267.627 2.0752 268.018 1.68457 268.799 1.68457H282.349L307.69 60.791L306.958 2.85645C306.958 2.0752 307.397 1.68457 308.276 1.68457H323.145C323.73 1.68457 324.023 2.0752 324.023 2.85645L324.17 105.176C324.17 105.762 323.926 106.055 323.438 106.055H310.254L284.253 50.8301L285.352 104.883C285.352 105.664 284.888 106.055 283.96 106.055Z" fill="#393939"/>
<path d="M362.695 107.52C357.373 107.52 352.466 106.152 347.974 103.418C343.53 100.684 339.966 97.0459 337.28 92.5049C334.644 87.915 333.325 82.8857 333.325 77.417V70.5322C333.325 69.9951 333.569 69.7266 334.058 69.7266H350.903C351.294 69.7266 351.489 69.9951 351.489 70.5322V77.417C351.489 80.6885 352.588 83.5205 354.785 85.9131C356.982 88.2568 359.619 89.4287 362.695 89.4287C365.82 89.4287 368.481 88.2324 370.679 85.8398C372.876 83.3984 373.975 80.5908 373.975 77.417C373.975 73.7549 371.582 70.5566 366.797 67.8223C366.016 67.334 364.99 66.748 363.721 66.0645C362.5 65.332 361.035 64.502 359.326 63.5742C357.617 62.6465 355.957 61.7432 354.346 60.8643C352.734 59.9365 351.172 59.0576 349.658 58.2275C344.189 55.0049 340.112 50.9766 337.427 46.1426C334.79 41.2598 333.472 35.791 333.472 29.7363C333.472 24.1699 334.839 19.1406 337.573 14.6484C340.308 10.2051 343.872 6.68945 348.267 4.10156C352.71 1.46484 357.52 0.146484 362.695 0.146484C368.018 0.146484 372.9 1.46484 377.344 4.10156C381.787 6.78711 385.327 10.3516 387.964 14.7949C390.649 19.2383 391.992 24.2188 391.992 29.7363V42.041C391.992 42.4316 391.797 42.627 391.406 42.627H374.561C374.17 42.627 373.975 42.4316 373.975 42.041L373.828 29.7363C373.828 26.2207 372.729 23.3643 370.532 21.167C368.335 18.9697 365.723 17.8711 362.695 17.8711C359.619 17.8711 356.982 19.043 354.785 21.3867C352.588 23.7305 351.489 26.5137 351.489 29.7363C351.489 33.0078 352.173 35.7422 353.54 37.9395C354.956 40.1367 357.52 42.2363 361.23 44.2383C361.621 44.4336 362.524 44.9219 363.94 45.7031C365.356 46.4844 366.919 47.3633 368.628 48.3398C370.386 49.2676 371.973 50.1221 373.389 50.9033C374.805 51.6357 375.659 52.0752 375.952 52.2217C380.933 55.0049 384.863 58.4229 387.744 62.4756C390.674 66.5283 392.139 71.5088 392.139 77.417C392.139 83.1299 390.82 88.2568 388.184 92.7979C385.498 97.3389 381.934 100.928 377.49 103.564C373.047 106.201 368.115 107.52 362.695 107.52Z" fill="#393939"/>
<path d="M434.546 106.055H417.627C417.188 106.055 416.968 105.811 416.968 105.322V19.7754H397.485C396.997 19.7754 396.753 19.5312 396.753 19.043L396.899 2.27051C396.899 1.87988 397.095 1.68457 397.485 1.68457H454.468C455.005 1.68457 455.273 1.87988 455.273 2.27051V19.043C455.273 19.5312 455.078 19.7754 454.688 19.7754H434.985L435.132 105.322C435.132 105.811 434.937 106.055 434.546 106.055Z" fill="#393939"/>
<path d="M480.176 106.055H463.184C462.793 106.055 462.598 105.811 462.598 105.322L462.891 2.27051C462.891 1.87988 463.086 1.68457 463.477 1.68457H493.799C499.219 1.68457 504.199 3.00293 508.74 5.63965C513.281 8.27637 516.895 11.8164 519.58 16.2598C522.314 20.7031 523.682 25.7324 523.682 31.3477C523.682 35.0098 523.12 38.3301 521.997 41.3086C520.874 44.2871 519.556 46.8018 518.042 48.8525C516.577 50.9033 515.234 52.417 514.014 53.3936C519.434 59.3994 522.144 66.4551 522.144 74.5605L522.29 105.322C522.29 105.811 522.046 106.055 521.558 106.055H504.565C504.175 106.055 503.979 105.908 503.979 105.615V74.5605C503.979 70.9473 502.71 67.8223 500.171 65.1855C497.632 62.5488 494.507 61.2305 490.796 61.2305H480.908L480.762 105.322C480.762 105.811 480.566 106.055 480.176 106.055ZM493.799 19.6289H480.908V43.2129H493.799C496.875 43.2129 499.609 42.0654 502.002 39.7705C504.443 37.4756 505.664 34.668 505.664 31.3477C505.664 28.1738 504.492 25.4395 502.148 23.1445C499.805 20.8008 497.021 19.6289 493.799 19.6289Z" fill="#393939"/>
<path d="M584.033 106.055H535.547C535.156 106.055 534.961 105.811 534.961 105.322L535.107 2.27051C535.107 1.87988 535.303 1.68457 535.693 1.68457H583.887C584.277 1.68457 584.473 1.92871 584.473 2.41699V19.1895C584.473 19.5801 584.277 19.7754 583.887 19.7754H553.125V43.2129H583.887C584.277 43.2129 584.473 43.4082 584.473 43.7988L584.619 60.791C584.619 61.1816 584.424 61.377 584.033 61.377H553.125V87.5977H584.033C584.424 87.5977 584.619 87.8418 584.619 88.3301V105.469C584.619 105.859 584.424 106.055 584.033 106.055Z" fill="#393939"/>
<path d="M592.896 105.322L611.499 2.27051C611.597 1.87988 611.841 1.68457 612.231 1.68457H633.984C634.375 1.68457 634.619 1.87988 634.717 2.27051L652.588 105.322C652.637 105.811 652.441 106.055 652.002 106.055H635.376C634.888 106.055 634.619 105.811 634.57 105.322L632.959 94.3359H612.524L610.913 105.322C610.864 105.811 610.62 106.055 610.181 106.055H593.481C593.091 106.055 592.896 105.811 592.896 105.322ZM622.266 36.1816L615.527 78.2959H629.956L623.804 36.1816L622.925 30.6152L622.266 36.1816Z" fill="#393939"/>
<path d="M679.541 106.055H662.549C662.158 106.055 661.963 105.811 661.963 105.322L662.256 2.27051C662.256 1.87988 662.451 1.68457 662.842 1.68457H681.152C681.543 1.68457 681.885 1.87988 682.178 2.27051L695.874 22.0459L709.497 2.27051C709.79 1.87988 710.156 1.68457 710.596 1.68457H728.979C729.419 1.68457 729.639 1.87988 729.639 2.27051L729.932 105.322C729.932 105.811 729.736 106.055 729.346 106.055H712.354C711.963 106.055 711.768 105.811 711.768 105.322L711.621 28.7842L695.874 51.6357L680.273 28.7842L680.127 105.322C680.127 105.811 679.932 106.055 679.541 106.055Z" fill="#393939"/>
</svg>
