<svg width="1088" height="208" viewBox="0 0 1088 208" fill="none" xmlns="http://www.w3.org/2000/svg">
<path d="M265.113 46.5225H288.331L359.669 83.876V46.5225H382.887V161H359.669V108.485L288.331 71.3516V161H265.113V46.5225Z" fill="#393939"/>
<path d="M408.448 117.494C408.448 111.635 409.645 106.044 412.037 100.722C414.43 95.3506 417.872 90.6143 422.364 86.5127C426.856 82.4111 432.35 79.1396 438.844 76.6982C445.387 74.2568 452.809 73.0361 461.109 73.0361C469.361 73.0361 476.783 74.2812 483.375 76.7715C490.016 79.2129 495.631 82.582 500.221 86.8789C504.859 91.1758 508.399 96.2295 510.841 102.04C513.331 107.851 514.576 114.076 514.576 120.717C514.576 121.547 514.552 122.45 514.503 123.427C514.503 124.354 514.454 125.209 514.356 125.99H432.618C433.546 128.578 435.035 130.946 437.086 133.095C439.186 135.243 441.798 137.099 444.923 138.661C448.048 140.224 451.661 141.444 455.763 142.323C459.864 143.153 464.405 143.568 469.386 143.568C474.366 143.568 479.322 143.056 484.254 142.03C489.186 140.956 493.897 139.613 498.39 138.002L505.714 154.555C502.882 155.873 500.001 157.045 497.071 158.07C494.19 159.047 491.163 159.877 487.989 160.561C484.864 161.195 481.568 161.684 478.102 162.025C474.684 162.367 471.07 162.538 467.262 162.538C457.545 162.538 449.024 161.366 441.7 159.022C434.376 156.679 428.248 153.48 423.316 149.428C418.385 145.375 414.674 140.614 412.184 135.146C409.693 129.677 408.448 123.793 408.448 117.494ZM491.578 109.071C490.797 106.679 489.576 104.457 487.916 102.406C486.305 100.307 484.278 98.5 481.837 96.9863C479.396 95.4238 476.563 94.2031 473.341 93.3242C470.118 92.4453 466.578 92.0059 462.721 92.0059C458.619 92.0059 454.884 92.4697 451.515 93.3975C448.146 94.3252 445.191 95.5703 442.652 97.1328C440.113 98.6953 437.989 100.502 436.28 102.553C434.62 104.604 433.399 106.776 432.618 109.071H491.578Z" fill="#393939"/>
<path d="M560.353 117.787L524.61 74.501H552.296L573.976 100.868L594.557 74.501H621.583L587.965 117.714L623.707 161H596.021L573.683 133.974L552.955 161H525.929L560.353 117.787Z" fill="#393939"/>
<path d="M650.587 90.834H629.713V74.5742H650.587V47.6943H672.267V74.5742H693.141V90.834H672.267V161H650.587V90.834Z" fill="#393939"/>
<path d="M707.276 102.699C707.276 94.6426 708.79 87.123 711.817 80.1406C714.845 73.1094 719.264 67.0059 725.074 61.8301C730.885 56.6543 738.014 52.5771 746.461 49.5986C754.957 46.6201 764.674 45.1309 775.611 45.1309C779.566 45.1309 783.521 45.3506 787.477 45.79C791.48 46.1807 795.411 46.8154 799.269 47.6943C803.175 48.5732 806.959 49.6963 810.621 51.0635C814.332 52.3818 817.848 53.9688 821.168 55.8242L810.475 73.4023C808.473 72.2305 806.202 71.1807 803.663 70.2529C801.124 69.2764 798.39 68.4707 795.46 67.8359C792.579 67.1523 789.576 66.6396 786.451 66.2979C783.375 65.9561 780.274 65.7852 777.149 65.7852C769.923 65.7852 763.478 66.7129 757.813 68.5684C752.149 70.375 747.364 72.9385 743.458 76.2588C739.552 79.5303 736.573 83.4609 734.522 88.0508C732.472 92.6406 731.446 97.6699 731.446 103.139C731.446 108.803 732.521 114.003 734.669 118.739C736.817 123.476 739.869 127.553 743.824 130.971C747.779 134.389 752.564 137.074 758.18 139.027C763.795 140.932 770.069 141.884 777.003 141.884C782.521 141.884 787.574 141.273 792.164 140.053C796.754 138.783 800.758 137.001 804.176 134.706C807.594 132.411 810.377 129.652 812.525 126.43C814.674 123.158 816.09 119.496 816.773 115.443H776.783V96.3271H837.647V96.4004L837.721 96.3271C838.941 102.187 839.308 107.899 838.819 113.466C838.38 118.983 837.11 124.208 835.011 129.14C832.96 134.022 830.128 138.515 826.515 142.616C822.901 146.718 818.58 150.258 813.551 153.236C808.521 156.166 802.809 158.461 796.412 160.121C790.016 161.732 783.009 162.538 775.392 162.538C764.747 162.538 755.201 160.976 746.754 157.851C738.355 154.726 731.227 150.453 725.367 145.033C719.508 139.613 715.016 133.266 711.891 125.99C708.814 118.715 707.276 110.951 707.276 102.699Z" fill="#393939"/>
<path d="M858.302 117.494C858.302 111.635 859.498 106.044 861.891 100.722C864.283 95.3506 867.726 90.6143 872.218 86.5127C876.71 82.4111 882.203 79.1396 888.697 76.6982C895.24 74.2568 902.662 73.0361 910.963 73.0361C919.215 73.0361 926.637 74.2812 933.229 76.7715C939.869 79.2129 945.484 82.582 950.074 86.8789C954.713 91.1758 958.253 96.2295 960.694 102.04C963.185 107.851 964.43 114.076 964.43 120.717C964.43 121.547 964.405 122.45 964.356 123.427C964.356 124.354 964.308 125.209 964.21 125.99H882.472C883.399 128.578 884.889 130.946 886.939 133.095C889.039 135.243 891.651 137.099 894.776 138.661C897.901 140.224 901.515 141.444 905.616 142.323C909.718 143.153 914.259 143.568 919.239 143.568C924.22 143.568 929.176 143.056 934.107 142.03C939.039 140.956 943.751 139.613 948.243 138.002L955.567 154.555C952.735 155.873 949.854 157.045 946.925 158.07C944.044 159.047 941.017 159.877 937.843 160.561C934.718 161.195 931.422 161.684 927.955 162.025C924.537 162.367 920.924 162.538 917.115 162.538C907.398 162.538 898.878 161.366 891.554 159.022C884.229 156.679 878.102 153.48 873.17 149.428C868.238 145.375 864.527 140.614 862.037 135.146C859.547 129.677 858.302 123.793 858.302 117.494ZM941.432 109.071C940.65 106.679 939.43 104.457 937.77 102.406C936.158 100.307 934.132 98.5 931.69 96.9863C929.249 95.4238 926.417 94.2031 923.194 93.3242C919.972 92.4453 916.432 92.0059 912.574 92.0059C908.473 92.0059 904.737 92.4697 901.368 93.3975C897.999 94.3252 895.045 95.5703 892.506 97.1328C889.967 98.6953 887.843 100.502 886.134 102.553C884.474 104.604 883.253 106.776 882.472 109.071H941.432Z" fill="#393939"/>
<path d="M987.794 74.5742H1009.47V81.8984C1015.24 78.627 1020.73 76.332 1025.95 75.0137C1031.23 73.6953 1036.38 73.0361 1041.41 73.0361C1048 73.0361 1054.1 74.0127 1059.72 75.9658C1065.33 77.8701 1070.19 80.7266 1074.29 84.5352C1078.39 88.3438 1081.59 93.1045 1083.89 98.8174C1086.23 104.481 1087.4 111.049 1087.4 118.52V161H1065.8V122.035C1065.8 117.299 1065.11 113.075 1063.75 109.364C1062.43 105.604 1060.5 102.455 1057.96 99.916C1055.47 97.3281 1052.42 95.375 1048.8 94.0566C1045.24 92.6895 1041.24 92.0059 1036.79 92.0059C1034.45 92.0059 1032.03 92.25 1029.54 92.7383C1027.1 93.2266 1024.68 93.9346 1022.29 94.8623C1019.95 95.7412 1017.68 96.8643 1015.48 98.2314C1013.28 99.5498 1011.28 101.063 1009.47 102.772V161H987.794V74.5742Z" fill="#393939"/>
<path d="M104 155.999L69.334 104L104 51.999L138.666 104L104 155.999Z" fill="#393939"/>
<path d="M149.086 119.623L114.418 171.622L138.666 208H208L149.086 119.623Z" fill="#393939"/>
<path d="M58.9159 119.623L0 208H69.334L93.5819 171.622L58.9159 119.623Z" fill="#393939"/>
<path d="M93.582 36.3759L69.334 3.09943e-06H3.09943e-06L58.9159 88.3769L93.582 36.3759Z" fill="#393939"/>
<path d="M149.086 88.3769L208 0H138.666L114.418 36.3759L149.086 88.3769Z" fill="#393939"/>
</svg>
